<svg id="svg" xmlns="http://www.w3.org/2000/svg" xmlns:xlink="http://www.w3.org/1999/xlink" width="400" height="400" viewBox="0, 0, 400,400"><g id="svgg"><path id="path0" d="M132.011 148.600 C 37.593 327.219,9.943 379.506,6.363 386.205 L 3.261 392.009 70.528 391.805 L 137.794 391.600 154.501 360.000 L 171.208 328.400 142.804 328.190 C 127.182 328.074,114.400 327.815,114.400 327.614 C 114.400 326.731,199.530 166.400,199.999 166.400 C 200.466 166.400,285.600 326.741,285.600 327.621 C 285.600 327.818,272.818 328.074,257.196 328.190 L 228.792 328.400 245.499 360.000 L 262.206 391.600 329.490 391.805 L 396.775 392.009 394.056 387.005 C 392.561 384.252,382.019 364.360,370.630 342.800 C 258.110 129.810,200.341 20.800,199.988 20.800 C 199.756 20.800,169.166 78.310,132.011 148.600 " stroke="none" fill="#000000" fill-rule="evenodd"></path></g></svg>