<svg id="svg" xmlns="http://www.w3.org/2000/svg" xmlns:xlink="http://www.w3.org/1999/xlink" width="400" height="400" viewBox="0, 0, 400,400"><g id="svgg"><path id="path0" d="M6.316 25.800 C 7.598 28.110,20.336 52.140,34.624 79.200 C 48.913 106.260,80.497 166.020,104.812 212.000 C 129.127 257.980,158.912 314.320,171.000 337.200 C 199.125 390.433,199.524 391.175,200.004 391.189 C 200.227 391.195,223.972 346.650,252.771 292.200 C 281.570 237.750,316.462 171.780,330.310 145.600 C 344.158 119.420,364.525 80.900,375.570 60.000 L 395.653 22.000 354.826 21.792 C 332.372 21.678,313.639 21.722,313.199 21.891 C 312.758 22.059,287.198 69.928,256.399 128.265 C 225.599 186.602,200.220 234.337,200.000 234.342 C 199.780 234.348,193.980 223.654,187.110 210.576 C 163.810 166.219,91.004 28.419,89.063 25.000 L 87.133 21.600 45.559 21.600 L 3.986 21.600 6.316 25.800 " stroke="none" fill="#000000" fill-rule="evenodd"></path></g></svg>